# xmcd
#
# Track frame offsets: 
#        150
#        14801
#        30920
#        43805
#        58583
#        71286
#        86378
#        98547
#        110243
#        123166
#        134448
#        145858
#        157520
#        169658
#        181960
#        193392
#        205233
#        217026
#        230385
#        242240
#        253436
#        267148
#        278509
#        290291
#        301581
#        314806
#        327929
#        340661
#
# Disc length: 4720 seconds
#
# Revision: 2
# Processed by: cddbd v1.5.2PL0 Copyright (c) Steve Scherf et al.
# Submitted via: ExactAudioCopy v0.99pb4
#
DISCID=96126e1c
DTITLE=Lowell Fulson - Classic Cuts: 1946-1953 [CD3]
DYEAR=1900
DGENRE=Blues
TTITLE0=Night and Day
TTITLE1=Double Trouble Blues
TTITLE2=Stormin' and Rainin'
TTITLE3=Good Woman Blues
TTITLE4=Western Union Blues
TTITLE5=Lazy Woman Blues
TTITLE6=River Blues (part 1)
TTITLE7=River Blues (part 2)
TTITLE8=I Walked All Night
TTITLE9=Between Midnight and Day
TTITLE10=The Blues Is Killing Me
TTITLE11=Did You Ever Feel Lucky
TTITLE12=Ain't Nobody's Business
TTITLE13=Jimmy's Blues (I've Got a Mind to Ramble)
TTITLE14=Every Day, I Have the Blues
TTITLE15=Rocking After Midnight
TTITLE16=Rock This House (alt.)
TTITLE17=Cold Hearted Mama
TTITLE18=Mama, Bring Your Clothes Back Home
TTITLE19=Low Society Blues
TTITLE20=Blue Shadows
TTITLE21=Back Home Blues
TTITLE22=Baby, Won't You Jump with Me
TTITLE23=Come Back, Baby
TTITLE24=Country Boy
TTITLE25=Rainy Day Blues
TTITLE26=Miss Little Brown
TTITLE27=Sinner's Prayer (+7001 alt.)
EXTD=CD 3/4 - JSP7728C
EXTT0=
EXTT1=
EXTT2=
EXTT3=
EXTT4=
EXTT5=
EXTT6=
EXTT7=
EXTT8=
EXTT9=
EXTT10=
EXTT11=
EXTT12=
EXTT13=
EXTT14=
EXTT15=
EXTT16=
EXTT17=
EXTT18=
EXTT19=
EXTT20=
EXTT21=
EXTT22=
EXTT23=
EXTT24=
EXTT25=
EXTT26=
EXTT27=
PLAYORDER=
